<?xml version="1.0" encoding="UTF-8"?>
<svg width="15px" height="18px" viewBox="0 0 15 18" version="1.1" xmlns="http://www.w3.org/2000/svg" xmlns:xlink="http://www.w3.org/1999/xlink">
    <title>英转中</title>
    <g id="页面-1" stroke="none" stroke-width="1" fill="none" fill-rule="evenodd">
        <g id="规范" transform="translate(-774.000000, -799.000000)" fill="#27339F" fill-rule="nonzero">
            <path d="M787.258857,803.294807 L787.258641,799.418726 L781.910398,801.334379 L787.258857,803.294807 Z M781.232124,801.092729 L775.607474,799 L775.607474,803.046632 L781.232124,801.092729 L781.232124,801.092729 Z M777.750054,804.163084 L778.687675,803.883858 L778.687675,805.069836 L780.696587,804.302584 L780.696587,808.070216 L779.892849,808.349216 L779.892849,807.79144 L778.553575,808.349216 L778.559406,810.44577 L777.750054,810.72162 L777.744008,808.646442 L776.410996,809.186443 L776.411212,809.605168 L775.607259,809.884169 L775.607474,806.116762 L777.750054,805.419036 L777.750054,804.163084 L777.750054,804.163084 Z M779.892849,805.488786 L778.687675,805.977037 L778.687675,807.37249 L779.892849,806.953764 L779.892849,805.488786 Z M776.410996,808.209716 L777.75027,807.72124 L777.750054,806.256263 L776.410996,806.744513 L776.410996,808.209716 Z M781.633992,801.433154 L774.402085,804.023359 L774.402085,814.349752 L781.633992,811.837622 L781.633992,801.433154 Z M781.835466,812.186823 C779.233578,813.094474 776.600377,814.000326 774.000216,814.907753 L774,803.744358 L787.660726,799 L787.660726,803.442183 L789,803.883858 L788.999784,814.628752 L781.835466,812.186823 L781.835466,812.186823 Z M787.458604,811.743572 C787.14376,810.55737 786.828052,809.366218 786.511697,808.171916 C786.194262,806.974464 785.876611,805.771612 785.557232,804.564935 C785.215179,804.426784 784.872263,804.287959 784.527835,804.148684 C784.214503,805.106961 783.900091,806.068387 783.585247,807.031839 L782.635101,809.938394 C782.984711,810.069569 783.334538,810.200519 783.682853,810.330795 C783.817817,809.887544 783.952781,809.443843 784.087529,809.000367 C784.730605,809.245618 785.373465,809.490868 786.016325,809.735894 C786.153449,810.277695 786.290356,810.81882 786.427911,811.358146 C786.772123,811.487072 787.116119,811.615322 787.458604,811.743572 L787.458604,811.743572 Z M785.702777,808.524266 C785.480356,807.63889 785.25772,806.753288 785.036811,805.867687 C784.819357,806.583188 784.602335,807.299139 784.385097,808.015091 C784.82454,808.184516 785.26355,808.354616 785.702777,808.524266 Z M778.322085,815.382053 C780.878194,817.047056 783.417028,817.253832 786.027338,815.525154 L786.167053,815.752629 C783.669032,817.406382 781.183105,817.380282 778.624836,815.884704 C778.474972,815.796054 778.327916,815.704704 778.182155,815.609754 L777.886098,816.09148 L777.213869,814.804477 L778.617062,814.901678 L778.322085,815.382053 Z" id="英转中" transform="translate(781.500000, 808.000000) scale(-1, 1) translate(-781.500000, -808.000000) "></path>
        </g>
    </g>
</svg>