<?xml version="1.0" encoding="UTF-8"?>
<svg width="15px" height="18px" viewBox="0 0 15 18" version="1.1" xmlns="http://www.w3.org/2000/svg" xmlns:xlink="http://www.w3.org/1999/xlink">
    <title>中转英</title>
    <g id="页面-1" stroke="none" stroke-width="1" fill="none" fill-rule="evenodd">
        <g id="规范" transform="translate(-813.000000, -799.000000)" fill="#27339F" fill-rule="nonzero">
            <path d="M826.258857,803.294807 L826.258641,799.418726 L820.910398,801.334379 L826.258857,803.294807 Z M820.232124,801.092729 L814.607474,799 L814.607474,803.046632 L820.232124,801.092729 L820.232124,801.092729 Z M816.750054,804.163084 L817.687675,803.883858 L817.687675,805.069836 L819.696587,804.302584 L819.696587,808.070216 L818.892849,808.349216 L818.892849,807.79144 L817.553575,808.349216 L817.559406,810.44577 L816.750054,810.72162 L816.744008,808.646442 L815.410996,809.186443 L815.411212,809.605168 L814.607259,809.884169 L814.607474,806.116762 L816.750054,805.419036 L816.750054,804.163084 L816.750054,804.163084 Z M818.892849,805.488786 L817.687675,805.977037 L817.687675,807.37249 L818.892849,806.953764 L818.892849,805.488786 Z M815.410996,808.209716 L816.75027,807.72124 L816.750054,806.256263 L815.410996,806.744513 L815.410996,808.209716 Z M820.633992,801.433154 L813.402085,804.023359 L813.402085,814.349752 L820.633992,811.837622 L820.633992,801.433154 Z M820.835466,812.186823 C818.233578,813.094474 815.600377,814.000326 813.000216,814.907753 L813,803.744358 L826.660726,799 L826.660726,803.442183 L828,803.883858 L827.999784,814.628752 L820.835466,812.186823 L820.835466,812.186823 Z M826.458604,811.743572 C826.14376,810.55737 825.828052,809.366218 825.511697,808.171916 C825.194262,806.974464 824.876611,805.771612 824.557232,804.564935 C824.215179,804.426784 823.872263,804.287959 823.527835,804.148684 C823.214503,805.106961 822.900091,806.068387 822.585247,807.031839 L821.635101,809.938394 C821.984711,810.069569 822.334538,810.200519 822.682853,810.330795 C822.817817,809.887544 822.952781,809.443843 823.087529,809.000367 C823.730605,809.245618 824.373465,809.490868 825.016325,809.735894 C825.153449,810.277695 825.290356,810.81882 825.427911,811.358146 C825.772123,811.487072 826.116119,811.615322 826.458604,811.743572 L826.458604,811.743572 Z M824.702777,808.524266 C824.480356,807.63889 824.25772,806.753288 824.036811,805.867687 C823.819357,806.583188 823.602335,807.299139 823.385097,808.015091 C823.82454,808.184516 824.26355,808.354616 824.702777,808.524266 Z M824.058837,815.382053 C821.502728,817.047056 818.963894,817.253832 816.353584,815.525154 L816.213869,815.752629 C818.71189,817.406382 821.197818,817.380282 823.756086,815.884704 C823.90595,815.796054 824.053007,815.704704 824.198768,815.609754 L824.494825,816.09148 L825.167053,814.804477 L823.76386,814.901678 L824.058837,815.382053 Z" id="中转英"></path>
        </g>
    </g>
</svg>